<?xml version="1.0" encoding="UTF-8" standalone="no"?>
<!DOCTYPE svg PUBLIC "-//W3C//DTD SVG 1.1//EN" "http://www.w3.org/Graphics/SVG/1.1/DTD/svg11.dtd">
<svg version="1.1" xmlns="http://www.w3.org/2000/svg" xmlns:xlink="http://www.w3.org/1999/xlink" preserveAspectRatio="xMidYMid meet" viewBox="0 0 640 640" width="640" height="640"><defs><path d="M596.17 526.93C590.99 526.93 586.79 531.83 586.79 537.88C586.79 538.28 586.79 541.47 586.79 541.87C586.79 552.42 581.58 561.53 573.87 565.78C572.57 560.11 566.07 531.76 554.36 480.74C562.39 480.74 566.85 480.74 567.74 480.74C572.92 480.74 577.12 475.83 577.12 469.79C577.12 463.74 572.92 458.84 567.74 458.84C565.86 458.84 550.79 458.84 548.9 458.84C546.54 458.84 544.23 458.63 541.96 458.25C541.95 458.25 541.94 458.25 541.94 458.25C518.13 454.29 499.77 430.33 499.77 401.45C499.77 398.98 499.77 379.26 499.77 376.8C499.77 370.75 495.57 365.85 490.39 365.85C487.95 365.85 468.42 365.85 465.98 365.85C449.25 365.85 435.64 349.95 435.64 330.42C435.64 330.32 435.64 329.8 435.64 328.86C480.13 328.86 504.85 328.86 509.79 328.86C522.21 328.86 534.23 333.06 544.54 341.01C548.86 344.33 554.68 342.94 557.53 337.89C560.38 332.85 559.19 326.06 554.87 322.73C542.42 313.14 528.07 307.76 513.18 307.05C504.8 286.4 488.99 267.08 467.84 251.77C465.04 239.68 461.17 224.17 457.22 209.26C454.16 197.74 449.97 182.5 446.08 170.23C452.58 161.48 455.14 149.35 452.5 137.83C448.94 122.36 436.9 111.56 423.22 111.56C420.59 111.56 417.94 111.97 415.34 112.78C411.16 114.09 377.7 124.55 373.52 125.86C365.69 128.31 359.14 134.18 355.09 142.37C351.04 150.57 349.96 160.12 352.06 169.24C353.71 176.47 357.21 182.79 362.18 187.51C364.99 190.18 368.13 192.22 371.49 193.57C372.35 199.42 373.47 206.3 374.86 214.13C375.92 220.06 380.89 223.86 385.95 222.63C391.02 221.4 394.27 215.61 393.22 209.69C391.26 198.63 389.85 189.63 389.04 182.94C388.42 177.86 384.86 173.96 380.48 173.56C367.59 172.38 365.82 150.94 378.37 147.01C382.55 145.7 416 135.24 420.18 133.93C426.5 131.96 432.77 136.46 434.39 143.5C435.65 149.02 433.78 154.9 429.73 158.15C426.1 161.05 424.69 166.5 426.33 171.26C429.68 180.99 434.17 196.38 439.31 215.74C443.67 232.2 447.92 249.36 450.69 261.64C451.32 264.44 452.87 266.83 455 268.3C465.02 275.17 481.3 288.34 491.72 306.96C485.44 306.96 435.2 306.96 428.92 306.96C422.28 306.96 416.89 313.27 416.89 321.01C416.89 321.95 416.89 329.48 416.89 330.42C416.89 339.94 418.9 348.93 422.43 356.84C419.65 359.1 417.01 361.58 414.52 364.26C408.91 355.79 400.33 350.13 390.62 349.42C390.48 347.41 390.39 345.37 390.39 343.29C390.39 320.22 398.74 298.16 405.75 283.71C406.97 281.2 407.29 278.22 406.64 275.44C404.99 268.38 403.05 259.5 401.16 250.45C399.94 244.57 394.88 240.96 389.84 242.39C384.81 243.82 381.72 249.74 382.94 255.61C384.5 263.11 386.1 270.5 387.56 276.9C379.9 293.6 371.64 317.57 371.64 343.29C371.64 345.33 371.71 347.34 371.82 349.34C371.32 349.34 367.33 349.34 366.83 349.34C348.73 349.34 334.01 366.53 334.01 387.66C334.01 406.03 345.14 421.41 359.93 425.12C357.67 430.32 356.39 436.19 356.39 442.41C356.39 457.07 363.48 469.83 373.86 476.27C370.5 482.29 368.54 489.46 368.54 497.16C368.54 510.82 374.7 522.82 383.94 529.61C380.07 535.9 377.79 543.59 377.79 551.9C377.79 573.04 392.51 590.23 410.6 590.23C411.59 590.23 416.54 590.23 425.45 590.23C429.66 608.59 432.01 618.79 432.47 620.83C435.12 632.37 444.09 640 453.87 640C455.76 640 457.68 639.71 459.59 639.11C469.69 635.96 550.44 610.69 560.53 607.54C568.78 604.95 574.69 597.21 576.41 588.08C591.63 582.63 602.86 567.43 605.12 548.83C608.35 548.83 634.21 548.83 637.44 548.83C642.62 548.83 646.82 543.93 646.82 537.88C646.82 531.83 642.62 526.93 637.44 526.93C629.19 526.93 600.3 526.93 596.17 526.93ZM421.38 387.65C425 382.35 429.31 377.73 434.13 373.99C442.71 382.56 453.83 387.75 465.98 387.75C466.98 387.75 471.99 387.75 481.01 387.75C481.01 395.97 481.01 400.54 481.01 401.45C481.01 438.02 502.33 468.88 531.22 477.99C529.63 505.43 513.14 529.38 489.9 536.65C480.9 539.47 471.56 539.62 462.61 537.14C459.98 529.81 455.45 523.64 449.76 519.46C453.62 513.17 455.91 505.47 455.91 497.16C455.91 482.5 448.82 469.74 438.43 463.3C441.79 457.28 443.75 450.11 443.75 442.41C443.75 424.04 432.63 408.66 417.84 404.95C420.09 399.75 421.38 393.88 421.38 387.66C421.38 387.66 421.38 387.66 421.38 387.65ZM352.77 387.66C352.77 378.61 359.08 371.24 366.83 371.24C368.39 371.24 380.89 371.24 382.45 371.24C382.47 371.24 382.48 371.24 382.5 371.24C382.52 371.24 382.54 371.24 382.56 371.24C383.16 371.24 387.96 371.24 388.56 371.24C396.32 371.24 402.63 378.61 402.63 387.66C402.63 396.72 396.32 404.09 388.56 404.09C387.12 404.09 379.87 404.09 366.83 404.09C357.45 399.18 352.77 393.7 352.77 387.66ZM389.21 425.99C391.38 425.99 408.77 425.99 410.94 425.99C418.7 425.99 425 433.35 425 442.41C425 451.47 418.7 458.84 410.94 458.84C410.3 458.84 407.11 458.84 401.36 458.84C394.07 458.84 390.02 458.84 389.21 458.84C381.45 458.84 375.14 451.47 375.14 442.41C375.14 433.35 381.45 425.99 389.21 425.99ZM401.36 480.74C409.41 480.74 415.05 480.74 423.1 480.74C430.85 480.74 437.16 488.1 437.16 497.16C437.16 506.22 430.85 513.58 423.1 513.58C410.14 513.58 403.49 513.58 401.36 513.58C393.6 513.58 387.3 506.22 387.3 497.16C387.3 488.1 393.6 480.74 401.36 480.74ZM432.28 568.33C430.11 568.33 412.77 568.33 410.6 568.33C402.85 568.33 396.54 560.96 396.54 551.91C396.54 542.85 402.85 535.48 410.6 535.48C423.55 535.48 430.2 535.48 432.34 535.48C440.09 535.48 446.4 542.85 446.4 551.91C446.4 560.96 440.1 568.32 432.35 568.33C432.33 568.33 432.3 568.33 432.28 568.33ZM454.74 617.96C452.93 618.53 451.07 617.27 450.59 615.16C449.95 612.41 444.89 590.36 444.26 587.6C454.43 582.95 462.14 572.55 464.44 559.83C468.07 560.46 471.73 560.79 475.39 560.79C481.88 560.79 488.39 559.8 494.76 557.8C515.93 551.18 532.89 534.19 542.22 512.42C543.8 519.33 556.49 574.62 558.08 581.53C558.56 583.64 557.48 585.82 555.68 586.39C535.49 592.7 464.84 614.81 454.74 617.96Z" id="d2xdyRW5tU"></path><path d="M591.13 390.89C589.92 379.58 587 368.55 582.51 358.48C580.11 353.11 574.45 351.04 569.86 353.83C565.27 356.63 563.49 363.24 565.88 368.6C575.66 390.51 572.34 407.96 573.01 419.08C573.01 425.13 577.2 430.03 582.38 430.03C587.56 430.03 591.76 425.13 591.76 419.08C591.76 418.66 591.76 416.56 591.76 412.79C619.17 412.79 634.4 412.79 637.44 412.79C642.62 412.79 646.82 407.89 646.82 401.84C646.82 395.79 642.62 390.89 637.44 390.89C628.18 390.89 595.76 390.89 591.13 390.89Z" id="bdYfVlokL"></path><path d="M286.81 349.34C286.31 349.34 282.31 349.34 281.82 349.34C281.92 347.34 281.99 345.33 281.99 343.3C281.99 317.57 273.74 293.6 266.08 276.9C271.23 254.21 278.67 217.34 282.14 193.57C285.5 192.22 288.65 190.18 291.46 187.51C296.43 182.79 299.93 176.47 301.57 169.26C303.67 160.12 302.6 150.57 298.55 142.37C294.49 134.18 287.95 128.31 280.12 125.86C275.94 124.55 242.47 114.09 238.29 112.78C235.7 111.97 233.05 111.56 230.42 111.56C216.73 111.56 204.69 122.36 201.14 137.83C198.49 149.35 201.06 161.48 207.56 170.23C205.86 175.6 203.98 181.9 201.95 189.07C200.32 194.81 202.98 201 207.9 202.9C212.81 204.81 218.12 201.69 219.74 195.95C222.64 185.75 225.18 177.44 227.31 171.26C228.94 166.5 227.53 161.05 223.91 158.15C219.86 154.9 217.99 149.02 219.25 143.51C220.61 137.59 225.2 133.46 230.42 133.46C231.42 133.46 232.44 133.62 233.45 133.93C237.63 135.24 271.09 145.7 275.27 147.01C287.79 150.93 286.05 172.38 273.15 173.56C268.78 173.96 265.22 177.86 264.6 182.93C261.81 205.85 252.42 252.18 247 275.44C246.35 278.23 246.67 281.2 247.89 283.71C254.89 298.16 263.25 320.22 263.25 343.29C263.25 345.35 263.16 347.36 263.02 349.34C258.72 349.34 224.35 349.34 220.05 349.34C216.16 347.22 212.08 345.47 207.89 344.16C201.54 342.18 195.03 341.18 188.53 341.18C177.76 341.18 166.98 344.02 157.16 349.34C156.61 349.34 153.83 349.34 148.84 349.34C151.83 336.3 153.5 329.05 153.83 327.6C154.24 325.8 154.72 324.03 155.26 322.29C155.37 322 155.47 321.7 155.55 321.4C164.01 295.28 185.79 277.12 198.64 268.3C200.76 266.84 202.31 264.46 202.95 261.67C204.58 254.47 206.45 246.64 208.96 236.62C210.41 230.82 207.56 224.73 202.59 223.04C197.62 221.33 192.42 224.67 190.96 230.47C189.27 237.21 187.39 244.91 185.81 251.77C171.69 262.02 151.13 280.53 140.41 307.08C99.63 309.02 67.34 345.3 62.51 390.9C57.88 390.9 20.83 390.9 16.19 390.9C11.01 390.9 6.82 395.8 6.82 401.84C6.82 407.89 11.01 412.79 16.19 412.79C21.7 412.79 65.76 412.79 71.27 412.79C76.41 412.79 80.59 407.96 80.64 401.95C80.88 374.08 94.34 349.9 114.05 337.57C114.18 337.49 114.29 337.4 114.41 337.32C120.47 333.59 127.04 331.04 133.91 329.78C133.62 331.08 132.12 337.6 129.43 349.34C128.68 349.34 128.26 349.34 128.18 349.34C123 349.34 118.8 354.24 118.8 360.29C118.8 366.33 123 371.24 128.18 371.24C255.91 371.24 229.33 371.24 271.07 371.24C271.09 371.24 271.12 371.24 271.14 371.24C271.16 371.24 271.17 371.24 271.19 371.24C272.75 371.24 285.24 371.24 286.81 371.24C294.56 371.24 300.87 378.61 300.87 387.66C300.87 396.72 294.56 404.09 286.81 404.09C284.57 404.09 266.67 404.09 264.43 404.09C259.25 404.09 255.06 408.99 255.06 415.04C255.06 421.09 259.25 425.99 264.43 425.99C272.19 425.99 278.49 433.35 278.49 442.41C278.49 451.47 272.19 458.84 264.43 458.84C263.22 458.84 253.49 458.84 252.28 458.84C247.1 458.84 242.9 463.74 242.9 469.78C242.9 475.83 247.1 480.73 252.28 480.73C260.03 480.73 266.34 488.1 266.34 497.16C266.34 506.22 260.03 513.58 252.28 513.58C251.35 513.58 243.96 513.58 243.03 513.58C237.86 513.58 233.66 518.49 233.66 524.53C233.66 530.58 237.86 535.48 243.03 535.48C250.79 535.48 257.1 542.85 257.1 551.91C257.1 560.96 250.79 568.33 243.03 568.33C227.68 568.33 104.86 568.33 89.51 568.33C77.01 568.33 66.85 556.46 66.85 541.87C66.85 541.47 66.85 538.28 66.85 537.88C66.85 531.83 62.65 526.93 57.47 526.93C53.34 526.93 20.32 526.93 16.19 526.93C11.01 526.93 6.82 531.83 6.82 537.88C6.82 543.93 11.01 548.83 16.19 548.83C19.43 548.83 45.29 548.83 48.52 548.83C50.82 567.39 62.19 582.56 77.19 588.03C78.86 597.22 84.77 604.92 93.1 607.54C197.44 639.87 194.37 640 199.77 640C209.54 640 218.51 632.37 221.16 620.83C221.63 618.79 223.97 608.59 228.19 590.23C237.09 590.23 242.04 590.23 243.03 590.23C261.13 590.23 275.85 573.04 275.85 551.91C275.85 543.6 273.57 535.9 269.71 529.61C278.94 522.83 285.09 510.82 285.09 497.16C285.09 489.46 283.14 482.29 279.78 476.28C290.16 469.83 297.24 457.07 297.24 442.41C297.24 436.2 295.97 430.33 293.72 425.13C308.5 421.42 319.62 406.03 319.62 387.66C319.62 366.53 304.9 349.34 286.81 349.34ZM198.89 617.96C192.98 616.12 163.43 606.87 110.25 590.23L208.77 590.23L203.05 615.16C201.49 617.41 200.1 618.34 198.89 617.96Z" id="a2KebbSOz7"></path><path d="M317.44 10.95C317.44 15.42 317.44 51.21 317.44 55.68C317.44 61.73 321.64 66.63 326.82 66.63C332 66.63 336.19 61.73 336.19 55.68C336.19 51.21 336.19 15.42 336.19 10.95C336.19 4.9 332 0 326.82 0C321.64 0 317.44 4.9 317.44 10.95Z" id="e62y4D9x9z"></path><path d="M275.39 21.49C272.15 16.78 266.24 16.04 262.21 19.82C258.18 23.61 257.54 30.51 260.78 35.22C263.45 39.09 284.8 70.08 287.47 73.96C289.32 76.64 292.04 78.04 294.78 78.04C296.84 78.04 298.92 77.25 300.65 75.62C304.69 71.83 305.32 64.94 302.08 60.23C296.74 52.48 278.06 25.37 275.39 21.49Z" id="a1p5jdeR"></path><path d="M378.25 21.49C375.58 25.37 354.23 56.36 351.56 60.23C348.31 64.94 348.95 71.83 352.99 75.62C354.72 77.25 356.79 78.04 358.86 78.04C361.6 78.04 364.31 76.64 366.17 73.96C368.84 70.08 390.19 39.09 392.86 35.22C396.1 30.51 395.46 23.61 391.43 19.82C387.39 16.03 381.49 16.78 378.25 21.49Z" id="b1oYVpcMM2"></path></defs><g><g><g><use xlink:href="#d2xdyRW5tU" opacity="1" fill="#02231c" fill-opacity="1"></use><g><use xlink:href="#d2xdyRW5tU" opacity="1" fill-opacity="0" stroke="#000000" stroke-width="1" stroke-opacity="0"></use></g></g><g><use xlink:href="#bdYfVlokL" opacity="1" fill="#02231c" fill-opacity="1"></use><g><use xlink:href="#bdYfVlokL" opacity="1" fill-opacity="0" stroke="#000000" stroke-width="1" stroke-opacity="0"></use></g></g><g><use xlink:href="#a2KebbSOz7" opacity="1" fill="#02231c" fill-opacity="1"></use><g><use xlink:href="#a2KebbSOz7" opacity="1" fill-opacity="0" stroke="#000000" stroke-width="1" stroke-opacity="0"></use></g></g><g><use xlink:href="#e62y4D9x9z" opacity="1" fill="#02231c" fill-opacity="1"></use><g><use xlink:href="#e62y4D9x9z" opacity="1" fill-opacity="0" stroke="#000000" stroke-width="1" stroke-opacity="0"></use></g></g><g><use xlink:href="#a1p5jdeR" opacity="1" fill="#02231c" fill-opacity="1"></use><g><use xlink:href="#a1p5jdeR" opacity="1" fill-opacity="0" stroke="#000000" stroke-width="1" stroke-opacity="0"></use></g></g><g><use xlink:href="#b1oYVpcMM2" opacity="1" fill="#02231c" fill-opacity="1"></use><g><use xlink:href="#b1oYVpcMM2" opacity="1" fill-opacity="0" stroke="#000000" stroke-width="1" stroke-opacity="0"></use></g></g></g></g></svg>